<?xml version="1.0" encoding="UTF-8"?>
<!DOCTYPE svg PUBLIC "-//W3C//DTD SVG 1.1//EN" "http://www.w3.org/Graphics/SVG/1.1/DTD/svg11.dtd">
<!-- Creator: CorelDRAW -->
<svg xmlns="http://www.w3.org/2000/svg" xml:space="preserve" width="512px" height="512px" version="1.1" style="shape-rendering:geometricPrecision; text-rendering:geometricPrecision; image-rendering:optimizeQuality; fill-rule:evenodd; clip-rule:evenodd"
viewBox="0 0 512 512"
 xmlns:xlink="http://www.w3.org/1999/xlink">
 <defs>
  <style type="text/css">
   <![CDATA[
    .fil0 {fill:black}
   ]]>
  </style>
 </defs>
 <g id="Layer_x0020_1">
  <metadata id="CorelCorpID_0Corel-Layer"/>
  <g id="_611710704">
   <g>
    <g>
     <path class="fil0" d="M256 342c-2,0 -4,-1 -5,-2l-131 -131c-3,-3 -3,-7 0,-10l27 -27c3,-3 7,-3 10,0l99 99 99 -99c3,-3 7,-3 10,0l27 27c3,3 3,7 0,10l-131 131c-1,1 -3,2 -5,2zm-121 -138l121 121 121 -121 -17 -17 -99 99c-3,3 -7,3 -10,0l-99 -99 -17 17z"/>
    </g>
    <g>
     <path class="fil0" d="M256 512c-69,0 -133,-27 -181,-75 -48,-48 -75,-112 -75,-181 0,-68 27,-133 75,-181 48,-48 113,-75 181,-75 68,0 133,27 181,75 48,48 75,113 75,181 0,69 -27,133 -75,181 -48,48 -112,75 -181,75zm0 -498c-133,0 -242,109 -242,242 0,133 109,242 242,242 133,0 242,-109 242,-242 0,-133 -109,-242 -242,-242z"/>
    </g>
    <g>
     <path class="fil0" d="M256 482c-60,0 -117,-24 -160,-66 -42,-43 -66,-100 -66,-160 0,-60 24,-117 66,-160 43,-42 100,-66 160,-66 60,0 117,24 160,66 42,43 66,100 66,160 0,60 -24,117 -66,160 -43,42 -100,66 -160,66zm0 -438c-117,0 -212,95 -212,212 0,117 95,212 212,212 117,0 212,-95 212,-212 0,-117 -95,-212 -212,-212z"/>
    </g>
   </g>
  </g>
 </g>
</svg>
